<svg xmlns="http://www.w3.org/2000/svg" width="1280" height="960" viewBox="0 0 1280 960"><defs><linearGradient id="stage" x1="0" y1="0" x2="1" y2="1"><stop stop-color="#111114"/><stop offset="1" stop-color="#070708"/></linearGradient><linearGradient id="case" x1="0" y1="0" x2="1" y2="1"><stop stop-color="#262628"/><stop offset=".48" stop-color="#121214"/><stop offset="1" stop-color="#080809"/></linearGradient><linearGradient id="bezel" x1="0" y1="0" x2="0" y2="1"><stop stop-color="#1a1a1c"/><stop offset="1" stop-color="#080809"/></linearGradient><filter id="shadow" x="-20%" y="-20%" width="140%" height="160%"><feDropShadow dx="0" dy="24" stdDeviation="26" flood-color="#000" flood-opacity=".68"/></filter><filter id="texture" x="-10%" y="-10%" width="120%" height="120%"><feTurbulence type="fractalNoise" baseFrequency=".65" numOctaves="2" seed="4" result="noise"/><feColorMatrix in="noise" type="saturate" values="0"/><feComponentTransfer><feFuncA type="table" tableValues="0 .08"/></feComponentTransfer></filter><style>@font-face{font-family:PGMono;src:url('../fonts/ibm-plex-mono-400.woff2') format('woff2');font-weight:400}@font-face{font-family:PGMono;src:url('../fonts/ibm-plex-mono-500.woff2') format('woff2');font-weight:500}.ui{font-family:PGMono,'IBM Plex Mono','Courier New',monospace}</style></defs><rect width="1280" height="960" fill="url(#stage)"/><g filter="url(#shadow)"><rect x="46" y="100" width="1165" height="760" rx="38" fill="url(#case)" stroke="#36363a" stroke-width="4"/><rect x="46" y="100" width="1165" height="760" rx="38" fill="#fff" filter="url(#texture)" opacity=".16"/><path d="M1198 455h82v150h-82z" fill="#111113" stroke="#343438" stroke-width="4"/><circle cx="1237" cy="530" r="16" fill="#1f1f22" stroke="#333338" stroke-width="4"/><circle cx="1237" cy="530" r="5" fill="#0b0b0c"/><rect x="128" y="146" width="875" height="670" rx="18" fill="url(#bezel)" stroke="#303035" stroke-width="4"/><rect x="151" y="170" width="829" height="622" rx="4" fill="#08090b" stroke="#44444a" stroke-width="3"/><g transform="translate(155 174) scale(2.5625)" class="ui"><rect width="320" height="240" fill="#17191d"/><rect width="320" height="23" fill="#d62f35"/><text x="6" y="15" fill="#fff" font-size="8.5">Saved</text><text x="48" y="15" fill="#fff" font-size="8.5" font-weight="500">DEMO SCAN</text><text x="138" y="15" fill="#ffd1d1" font-size="7.4">36 logged</text><text x="252" y="15" fill="#fff" font-size="8.2">WiFi</text><text x="294" y="15" fill="#fff" font-size="8.2">SD</text><line x1="0" y1="45" x2="320" y2="45" stroke="#ed5054" stroke-width=".7"/><text x="18" y="38" fill="#f3f5f7" font-size="9">Pack</text><text x="74" y="38" fill="#f3f5f7" font-size="9">Chg</text><text x="132" y="38" fill="#f3f5f7" font-size="9">Tool</text><rect x="181" y="23" width="55" height="22" fill="#d62f35"/><text x="191" y="38" fill="#fff" font-size="9">Amps</text><text x="252" y="38" fill="#aeb5c0" font-size="9">Cond</text><rect x="7" y="51" width="64" height="18" rx="2" fill="#202329" stroke="#f04444" stroke-width=".8"/><text x="39" y="63.5" text-anchor="middle" fill="#fff" font-size="7.8">10A bins</text><rect x="77" y="51" width="56" height="18" rx="2" fill="#202329" stroke="#f04444" stroke-width=".8"/><text x="105" y="63.5" text-anchor="middle" fill="#fff" font-size="7.8">Chart</text><rect x="139" y="51" width="56" height="18" rx="2" fill="#202329" stroke="#f04444" stroke-width=".8"/><text x="167" y="63.5" text-anchor="middle" fill="#fff" font-size="7.8">Log</text><text x="312" y="63.5" text-anchor="end" fill="#aeb5c0" font-size="8">8h 28m</text><line x1="10" y1="184" x2="309" y2="184" stroke="#9ebcff" stroke-width=".8"/><g fill="#f04444"><rect x="12" y="116" width="13" height="68"/><rect x="26.6" y="108" width="13" height="76"/><rect x="41.2" y="112" width="13" height="72"/><rect x="55.8" y="120" width="13" height="64"/><rect x="70.4" y="129" width="13" height="55"/><rect x="85" y="131" width="13" height="53"/><rect x="99.6" y="139" width="13" height="45"/><rect x="114.2" y="144" width="13" height="40"/><rect x="128.8" y="147" width="13" height="37"/><rect x="143.4" y="151" width="13" height="33"/><rect x="158" y="155" width="13" height="29"/><rect x="172.6" y="157" width="13" height="27"/><rect x="187.2" y="159" width="13" height="25"/><rect x="201.8" y="164" width="13" height="20"/><rect x="216.4" y="168" width="13" height="16"/><rect x="231" y="166" width="13" height="18"/><rect x="245.6" y="169" width="13" height="15"/><rect x="260.2" y="172" width="13" height="12"/><rect x="274.8" y="176" width="13" height="8"/><rect x="289.4" y="173" width="13" height="11"/></g><g fill="#d9e1ff" font-size="6.8"><text x="8" y="197">10</text><text x="84" y="197">60</text><text x="162" y="197">110</text><text x="238" y="197">160</text><text x="308" y="197" text-anchor="end">200+ A</text></g><text x="160" y="207" text-anchor="middle" fill="#d9e1ff" font-size="7">log scale</text><g><rect x="8" y="211" width="69" height="23" rx="2.5" fill="#22252a" stroke="#f04444"/><text x="42.5" y="226.5" text-anchor="middle" fill="#fff" font-size="9">Home</text><rect x="84" y="211" width="69" height="23" rx="2.5" fill="#22252a" stroke="#f04444"/><text x="118.5" y="226.5" text-anchor="middle" fill="#fff" font-size="9">Note</text><rect x="160" y="211" width="69" height="23" rx="2.5" fill="#22252a" stroke="#f04444"/><text x="194.5" y="226.5" text-anchor="middle" fill="#fff" font-size="9">Email</text><rect x="236" y="211" width="69" height="23" rx="2.5" fill="#22252a" stroke="#f04444"/><text x="270.5" y="226.5" text-anchor="middle" fill="#fff" font-size="9">Back</text></g></g></g></svg>